# xmcd
#
# Track frame offsets: 
#        183
#        13718
#        36120
#        51263
#        67580
#        82693
#        94198
#        117608
#        130728
#        153030
#
# Disc length: 2220 seconds
#
# Revision: 1
# Processed by: cddbd v1.5.2PL0 Copyright (c) Steve Scherf et al.
# Submitted via: ExactAudioCopy v0.99pb5
#
DISCID=6f08aa0a
DTITLE=Humble Pie - The Sad Bag Of Shaky Jake
DYEAR=1900
DGENRE=Blues
TTITLE0=The Sad Bag Of Shaky Jake
TTITLE1=Home And Away
TTITLE2=Silver Tongue
TTITLE3=Only You Can See
TTITLE4=Cold Lady
TTITLE5=Heartbeat
TTITLE6=Every Mothers Son
TTITLE7=Down Home Again
TTITLE8=Take Me Back
TTITLE9=The Light Of Love
EXTD=
EXTT0=
EXTT1=
EXTT2=
EXTT3=
EXTT4=
EXTT5=
EXTT6=
EXTT7=
EXTT8=
EXTT9=
PLAYORDER=
